<?xml version="1.0" encoding="utf-8"?>
<svg version="1.1" id="Layer_1" xmlns="http://www.w3.org/2000/svg" x="0px" y="0px" viewBox="0 0 407 131.73" style="enable-background:new 0 0 407 131.73;" xmlns:bx="https://boxy-svg.com">
  <defs>
    <bx:export>
      <bx:file format="svg" path="rizzy-logo-white.svg" normalization="web-static"/>
    </bx:export>
    <linearGradient id="gradient-5" bx:pinned="true">
      <stop offset="0" style="stop-color: rgb(210, 255, 193);"/>
      <stop offset="1" style="stop-color: rgb(221, 255, 163);"/>
    </linearGradient>
    <linearGradient id="gradient-5-0" href="#gradient-5" gradientUnits="userSpaceOnUse" x1="39.24" y1="21.962" x2="39.24" y2="92.69"/>
    <linearGradient id="gradient-5-1" href="#gradient-5" gradientUnits="userSpaceOnUse" x1="82.41" y1="7.83" x2="82.41" y2="92.68"/>
    <linearGradient id="gradient-5-2" href="#gradient-5" gradientUnits="userSpaceOnUse" x1="120.73" y1="38.56" x2="120.73" y2="92.69"/>
    <linearGradient id="gradient-5-3" href="#gradient-5" gradientUnits="userSpaceOnUse" x1="168.695" y1="38.56" x2="168.695" y2="92.69"/>
    <linearGradient id="gradient-5-4" href="#gradient-5" gradientUnits="userSpaceOnUse" x1="220.135" y1="38.55" x2="220.135" y2="116.11"/>
    <linearGradient gradientUnits="userSpaceOnUse" x1="219.93" y1="36.838" x2="219.93" y2="113.434" id="gradient-0" gradientTransform="matrix(-0.020337, -0.762116, 4.002679, -0.058633, -42.988235, 233.892)">
      <stop offset="0" style="stop-color: rgb(189, 220, 81);"/>
      <stop offset="1" style="stop-color: rgb(0% 0% 0%)"/>
    </linearGradient>
    <linearGradient gradientUnits="userSpaceOnUse" x1="232.068" y1="36.838" x2="232.068" y2="113.434" id="gradient-1" gradientTransform="matrix(-0.001626, 0.762263, -3.800521, -0.005243, 532.104241, -110.012)">
      <stop offset="0" style="stop-color: rgb(216, 216, 216); stop-opacity: 0;"/>
      <stop offset="1" style="stop-color: rgb(127, 219, 182);"/>
    </linearGradient>
  </defs>
  <style type="text/css">
	.st0{fill:#0095FF;}
	.st1{fill-rule:evenodd;clip-rule:evenodd;fill:#00FF3C;}
</style>
  <rect x="99.639" y="36.481" width="293.067" height="58.386" style="stroke-width: 0px; stroke: url(&quot;#gradient-0&quot;); fill: url(&quot;#gradient-1&quot;);"/>
  <g>
    <g transform="matrix(1, 0, 0, 1, 125.318, 7.25167)">
      <g>
        <path d="M32.98,68.65h-2.12v24.03H7.53V22.2C27.91,22.47,68.22,17.16,66,45.12c0,8.58-3.53,13.83-11.81,19.19l16.76,28.38H45.2 L32.98,68.65z M30.86,53.2c5.88,0.42,11.85-0.12,11.41-8.08c0.33-6.53-6.03-7.49-11.41-7.07V53.2z" style="fill: url(&quot;#gradient-5-0&quot;); stroke: rgb(0, 0, 0); stroke-width: 3px;"/>
        <path d="M94.78,19.47c0.31,15.47-25.02,15.57-24.74,0C69.76,3.9,95.09,4,94.78,19.47z M93.57,92.68H71.15V38.56h22.42V92.68z" style="fill: url(&quot;#gradient-5-1&quot;); stroke: rgb(0, 0, 0); stroke-width: 3px;"/>
        <path d="M143.75,54.01l-20.8,22.32h21.71l-1.92,16.36H96.8V77.13L118,54.71H98.71V38.56h45.04V54.01z" style="fill: url(&quot;#gradient-5-2&quot;); stroke: rgb(0, 0, 0); stroke-width: 3px;"/>
        <path d="M191.72,54.01l-20.8,22.32h21.71l-1.92,16.36h-45.95V77.13l21.21-22.42h-19.29V38.56h45.04V54.01z" style="fill: url(&quot;#gradient-5-3&quot;); stroke: rgb(0, 0, 0); stroke-width: 3px;"/>
        <path d="M233.42,92.48c-4.65,15.65-16.66,23.43-35.55,23.63l-2.42-15.15c10.3-0.81,14.95-2.73,17.67-8.28h-7.78l-14.74-54.13 h23.73l5.15,40.6l7.17-40.6h23.02L233.42,92.48z" style="fill: url(&quot;#gradient-5-4&quot;); stroke: rgb(0, 0, 0); stroke-width: 3px;"/>
      </g>
    </g>
  </g>
  <g>
    <g style="" transform="matrix(0.167166, 0, 0, 0.167166, -17.1239, -20.7256)">
      <path style="opacity:0.987" fill="#000100" d="M 355.5,135.5 C 429.939,132.919 494.606,156.419 549.5,206C 566.139,221.346 581.139,238.012 594.5,256C 683.631,291.132 747.131,352.632 785,440.5C 811.733,506.767 817.066,574.767 801,644.5C 788.204,696.281 763.371,741.115 726.5,779C 737.161,780.277 747.828,781.444 758.5,782.5C 757.634,786.886 755.301,790.386 751.5,793C 695.102,839.794 630.102,860.127 556.5,854C 549.123,853.32 541.789,852.653 534.5,852C 554.687,860.596 575.354,867.763 596.5,873.5C 596.863,875.911 595.863,877.411 593.5,878C 556.295,893.268 517.628,898.934 477.5,895C 390.008,885.532 320.841,845.365 270,774.5C 272.269,784.687 274.102,795.02 275.5,805.5C 271.976,805.071 268.976,803.571 266.5,801C 211.967,746.048 184.8,679.548 185,601.5C 176.412,621.596 168.412,641.929 161,662.5C 159.667,663.833 158.333,663.833 157,662.5C 149.524,645.261 145.19,627.261 144,608.5C 137.981,547.239 154.814,493.406 194.5,447C 169.68,446.381 146.68,439.714 125.5,427C 121.46,424.294 118.127,420.96 115.5,417C 115.645,416.228 115.978,415.561 116.5,415C 134.894,410.647 152.561,404.313 169.5,396C 186.623,387.273 203.289,377.773 219.5,367.5C 184.955,361.401 156.455,345.068 134,318.5C 129.831,312.834 126.165,306.834 123,300.5C 122.505,298.527 122.338,296.527 122.5,294.5C 137.702,297.706 153.035,300.206 168.5,302C 204.48,305.003 239.146,299.67 272.5,286C 239.12,278.563 209.954,263.397 185,240.5C 179.283,233.784 173.95,226.784 169,219.5C 167.872,217.655 167.372,215.655 167.5,213.5C 193.326,218.322 219.326,219.488 245.5,217C 273.145,213.146 300.812,209.479 328.5,206C 340.647,205.041 352.813,204.541 365,204.5C 378.173,204.919 391.34,205.085 404.5,205C 382.53,182.694 359.03,162.194 334,143.5C 333.28,141.888 333.446,140.388 334.5,139C 341.541,137.252 348.541,136.086 355.5,135.5 Z"/>
    </g>
    <g style="" transform="matrix(0.167166, 0, 0, 0.167166, -17.1239, -20.7256)">
      <path style="opacity:1" fill="#bddc51" d="M 588.5,432.5 C 586.914,433.148 585.247,433.648 583.5,434C 564.194,447.293 546.028,462.126 529,478.5C 521.004,487.847 513.504,497.514 506.5,507.5C 502.723,515.983 499.223,524.65 496,533.5C 494.725,528.919 493.725,524.252 493,519.5C 492.667,511.167 492.333,502.833 492,494.5C 488.236,499.927 484.903,505.593 482,511.5C 479.793,519.537 477.459,527.537 475,535.5C 472.708,534.21 470.708,532.543 469,530.5C 455.702,512.903 445.868,493.569 439.5,472.5C 429.677,512.92 434.844,551.253 455,587.5C 456.736,589.063 458.236,590.73 459.5,592.5C 461.026,600.078 463.359,607.411 466.5,614.5C 466.167,614.833 465.833,615.167 465.5,615.5C 430.688,577.771 412.022,533.104 409.5,481.5C 409.667,470.828 409.5,460.161 409,449.5C 408.283,450.044 407.783,450.711 407.5,451.5C 389.005,518.929 402.505,578.929 448,631.5C 489.331,679.103 541.164,708.603 603.5,720C 617.556,720.708 631.556,721.708 645.5,723C 584.586,738.488 526.586,731.155 471.5,701C 462.839,696.672 454.506,691.838 446.5,686.5C 446.167,686.667 445.833,686.833 445.5,687C 450.296,693.629 455.629,699.796 461.5,705.5C 459.847,706.799 458.347,706.466 457,704.5C 455.612,705.554 454.112,705.72 452.5,705C 405.295,678.802 371.128,640.969 350,591.5C 349.028,587.857 348.194,584.19 347.5,580.5C 348.002,579.479 348.668,579.312 349.5,580C 367.541,605.041 389.208,626.375 414.5,644C 415.877,645.241 417.21,645.408 418.5,644.5C 406.13,628.415 395.297,611.415 386,593.5C 366.584,547.962 360.584,500.629 368,451.5C 369.757,441.774 371.757,432.107 374,422.5C 378.731,407.944 384.231,393.61 390.5,379.5C 390.333,379.167 390.167,378.833 390,378.5C 370.664,395.844 354.664,415.844 342,438.5C 341.667,438.833 341.333,439.167 341,439.5C 340.074,431.271 341.074,423.271 344,415.5C 356.455,381.894 374.955,352.228 399.5,326.5C 397.534,325.628 395.534,325.795 393.5,327C 342.883,347.426 300.716,380.259 267,425.5C 266.31,426.738 265.81,426.738 265.5,425.5C 268.558,417.716 272.391,410.383 277,403.5C 282.494,396.513 287.494,389.18 292,381.5C 298.042,375.127 303.708,368.46 309,361.5C 317.501,355.853 325.001,349.187 331.5,341.5C 333.368,340.737 335.035,339.737 336.5,338.5C 345.623,331.1 354.956,323.933 364.5,317C 366.119,315.517 366.286,314.35 365,313.5C 342.579,320.065 320.079,325.565 297.5,330C 269.731,331.307 242.064,330.307 214.5,327C 213.833,326.667 213.167,326.333 212.5,326C 214.058,325.79 215.391,325.29 216.5,324.5C 236.828,322.118 256.828,317.952 276.5,312C 296.725,304.554 316.725,296.554 336.5,288C 350.962,282.79 365.629,278.29 380.5,274.5C 388.245,272.126 396.078,270.126 404,268.5C 407.588,269.939 411.088,269.772 414.5,268C 424.167,267.667 433.833,267.333 443.5,267C 437.925,263.38 431.925,260.547 425.5,258.5C 406.245,250.84 385.912,246.007 364.5,244C 363.672,243.085 362.672,242.419 361.5,242C 329.637,241.311 297.97,239.811 266.5,237.5C 288.646,234.676 310.979,232.176 333.5,230C 374.767,225.54 415.433,228.54 455.5,239C 466.416,242.696 477.083,246.196 487.5,249.5C 460.491,214.988 429.158,185.154 393.5,160C 444.487,167.829 489.82,188.162 529.5,221C 552.656,241.812 572.489,265.312 589,291.5C 604.068,307.578 616.401,325.578 626,345.5C 628.505,351.007 630.172,356.673 631,362.5C 609.405,381.363 595.238,404.696 588.5,432.5 Z"/>
    </g>
    <g style="" transform="matrix(0.167166, 0, 0, 0.167166, -17.1239, -20.7256)">
      <path style="opacity:1" fill="#62bc4b" d="M 266.5,237.5 C 297.97,239.811 329.637,241.311 361.5,242C 362.672,242.419 363.672,243.085 364.5,244C 385.912,246.007 406.245,250.84 425.5,258.5C 431.925,260.547 437.925,263.38 443.5,267C 433.833,267.333 424.167,267.667 414.5,268C 411.088,269.772 407.588,269.939 404,268.5C 396.078,270.126 388.245,272.126 380.5,274.5C 349.094,272.96 317.761,269.46 286.5,264C 272.516,260.752 258.85,256.419 245.5,251C 238.011,247.759 231.011,243.759 224.5,239C 238.498,238.38 252.498,237.88 266.5,237.5 Z"/>
    </g>
    <g style="" transform="matrix(0.167166, 0, 0, 0.167166, -17.1239, -20.7256)">
      <path style="opacity:1" fill="#3bc7b8" d="M 640.5,707.5 C 635.335,689.333 623.669,678 605.5,673.5C 601.013,674.708 596.679,676.374 592.5,678.5C 591.914,678.291 591.414,677.957 591,677.5C 591.239,668.527 589.906,659.861 587,651.5C 578.701,632.1 564.201,624.434 543.5,628.5C 542.075,628.377 540.742,628.043 539.5,627.5C 533.498,593.508 540.998,562.841 562,535.5C 595.045,494.474 637.878,477.307 690.5,484C 701.197,486.4 711.864,488.9 722.5,491.5C 725.39,449.999 712.89,413.999 685,383.5C 675.292,374.79 665.292,366.457 655,358.5C 645.811,336.446 634.311,315.779 620.5,296.5C 620.833,296.167 621.167,295.833 621.5,295.5C 705.072,341.607 757.905,411.273 780,504.5C 795.051,586.256 779.718,661.589 734,730.5C 722.616,745.557 710.116,759.724 696.5,773C 666.412,774.406 637.079,770.406 608.5,761C 607.366,759.984 607.699,759.317 609.5,759C 649.366,754.669 680.533,736.169 703,703.5C 704.5,700.5 706,697.5 707.5,694.5C 706.833,694.167 706.167,693.833 705.5,693.5C 684.542,701.492 662.875,706.158 640.5,707.5 Z"/>
    </g>
    <g style="" transform="matrix(0.167166, 0, 0, 0.167166, -17.1239, -20.7256)">
      <path style="opacity:1" fill="#62bc4b" d="M 336.5,338.5 C 314.902,344.783 292.902,348.95 270.5,351C 234.757,352.818 202.424,343.318 173.5,322.5C 174,322.167 174.5,321.833 175,321.5C 188.727,323.681 202.56,324.681 216.5,324.5C 215.391,325.29 214.058,325.79 212.5,326C 213.167,326.333 213.833,326.667 214.5,327C 242.064,330.307 269.731,331.307 297.5,330C 320.079,325.565 342.579,320.065 365,313.5C 366.286,314.35 366.119,315.517 364.5,317C 354.956,323.933 345.623,331.1 336.5,338.5 Z"/>
    </g>
    <g style="" transform="matrix(0.167166, 0, 0, 0.167166, -17.1239, -20.7256)">
      <path style="opacity:1" fill="#61bd4b" d="M 461.5,705.5 C 489.814,731.663 522.814,749.496 560.5,759C 603.597,780.902 649.264,792.902 697.5,795C 650.577,808.303 603.91,807.303 557.5,792C 491.992,769.86 436.159,733.36 390,682.5C 376.236,665.91 363.069,648.91 350.5,631.5C 324.917,582.426 314.084,530.092 318,474.5C 309.282,497.095 304.782,520.595 304.5,545C 305.784,576.329 310.617,606.829 319,636.5C 325.471,654.746 331.638,673.08 337.5,691.5C 331.089,684.079 325.422,676.079 320.5,667.5C 287.184,608.356 277.184,545.189 290.5,478C 296.54,454.542 304.54,431.876 314.5,410C 314.167,409.5 313.833,409 313.5,408.5C 283.861,431.801 259.195,459.468 239.5,491.5C 239.167,490.833 238.833,490.167 238.5,489.5C 239.899,480.9 242.066,472.567 245,464.5C 251.284,451.093 258.117,438.093 265.5,425.5C 265.81,426.738 266.31,426.738 267,425.5C 300.716,380.259 342.883,347.426 393.5,327C 395.534,325.795 397.534,325.628 399.5,326.5C 374.955,352.228 356.455,381.894 344,415.5C 341.074,423.271 340.074,431.271 341,439.5C 341.333,439.167 341.667,438.833 342,438.5C 354.664,415.844 370.664,395.844 390,378.5C 390.167,378.833 390.333,379.167 390.5,379.5C 384.231,393.61 378.731,407.944 374,422.5C 371.757,432.107 369.757,441.774 368,451.5C 360.584,500.629 366.584,547.962 386,593.5C 395.297,611.415 406.13,628.415 418.5,644.5C 417.21,645.408 415.877,645.241 414.5,644C 389.208,626.375 367.541,605.041 349.5,580C 348.668,579.312 348.002,579.479 347.5,580.5C 348.194,584.19 349.028,587.857 350,591.5C 371.128,640.969 405.295,678.802 452.5,705C 454.112,705.72 455.612,705.554 457,704.5C 458.347,706.466 459.847,706.799 461.5,705.5 Z"/>
    </g>
    <g style="" transform="matrix(0.167166, 0, 0, 0.167166, -17.1239, -20.7256)">
      <path style="opacity:1" fill="#060603" d="M 524.5,332.5 C 552.576,332.071 567.909,345.904 570.5,374C 567.134,402.712 551.134,416.045 522.5,414C 500.778,406.606 490.611,391.44 492,368.5C 495.044,349.297 505.878,337.297 524.5,332.5 Z"/>
    </g>
    <g style="" transform="matrix(0.167166, 0, 0, 0.167166, -17.1239, -20.7256)">
      <path style="opacity:1" fill="#218e52" d="M 331.5,341.5 C 325.001,349.187 317.501,355.853 309,361.5C 303.708,368.46 298.042,375.127 292,381.5C 287.494,389.18 282.494,396.513 277,403.5C 272.391,410.383 268.558,417.716 265.5,425.5C 258.117,438.093 251.284,451.093 245,464.5C 242.066,472.567 239.899,480.9 238.5,489.5C 238.833,490.167 239.167,490.833 239.5,491.5C 259.195,459.468 283.861,431.801 313.5,408.5C 313.833,409 314.167,409.5 314.5,410C 304.54,431.876 296.54,454.542 290.5,478C 277.184,545.189 287.184,608.356 320.5,667.5C 303.757,643.341 291.257,617.008 283,588.5C 284.024,610.268 288.691,631.268 297,651.5C 342.392,759.561 420.559,832.394 531.5,870C 459.144,874.804 393.81,855.804 335.5,813C 284.652,772.482 256.485,719.648 251,654.5C 266.774,698.583 292.94,735.083 329.5,764C 330.167,764.667 330.833,764.667 331.5,764C 264.608,680.916 242.774,587.083 266,482.5C 243.727,518.992 231.727,558.659 230,601.5C 228.949,646.144 234.449,689.978 246.5,733C 246.333,733.5 246.167,734 246,734.5C 233.285,713.366 224.285,690.699 219,666.5C 211.923,631.177 209.589,595.51 212,559.5C 214.006,498.632 233.506,444.298 270.5,396.5C 253.779,407.172 235.446,415.338 215.5,421C 197.952,424.734 180.285,425.401 162.5,423C 176.243,417.298 189.91,411.298 203.5,405C 244.397,380.385 287.064,359.218 331.5,341.5 Z"/>
    </g>
    <g style="" transform="matrix(0.167166, 0, 0, 0.167166, -17.1239, -20.7256)">
      <path style="opacity:1" fill="#fefffe" d="M 538.5,348.5 C 549.654,347.487 554.488,352.487 553,363.5C 548.806,370.677 542.973,372.343 535.5,368.5C 529.476,360.68 530.476,354.013 538.5,348.5 Z"/>
    </g>
    <g style="" transform="matrix(0.167166, 0, 0, 0.167166, -17.1239, -20.7256)">
      <path style="opacity:1" fill="#f8e17b" d="M 700.5,460.5 C 698.691,461.291 696.691,461.291 694.5,460.5C 692.847,460.34 691.514,459.674 690.5,458.5C 692.276,458.206 694.276,458.04 696.5,458C 673.142,438.316 646.808,423.816 617.5,414.5C 616.558,414.608 615.725,414.941 615,415.5C 614.576,418.025 613.41,420.025 611.5,421.5C 616.884,405.91 625.884,392.743 638.5,382C 640.212,380.249 642.212,379.582 644.5,380C 675.884,397.918 694.551,424.752 700.5,460.5 Z"/>
    </g>
    <g style="" transform="matrix(0.167166, 0, 0, 0.167166, -17.1239, -20.7256)">
      <path style="opacity:1" fill="#efb232" d="M 690.5,458.5 C 664.159,446.696 636.492,440.363 607.5,439.5C 607.892,433.269 609.225,427.269 611.5,421.5C 613.41,420.025 614.576,418.025 615,415.5C 615.725,414.941 616.558,414.608 617.5,414.5C 646.808,423.816 673.142,438.316 696.5,458C 694.276,458.04 692.276,458.206 690.5,458.5 Z"/>
    </g>
    <g style="" transform="matrix(0.167166, 0, 0, 0.167166, -17.1239, -20.7256)">
      <path style="opacity:1" fill="#61bd4b" d="M 588.5,432.5 C 585.905,446.463 585.905,460.463 588.5,474.5C 580.364,481.795 572.031,488.962 563.5,496C 524.699,532.143 508.866,576.643 516,629.5C 518.184,634.7 519.517,640.034 520,645.5C 489.389,620.512 468.722,588.845 458,550.5C 456.893,554.888 456.393,559.388 456.5,564C 456.704,573.591 457.704,583.091 459.5,592.5C 458.236,590.73 456.736,589.063 455,587.5C 434.844,551.253 429.677,512.92 439.5,472.5C 445.868,493.569 455.702,512.903 469,530.5C 470.708,532.543 472.708,534.21 475,535.5C 477.459,527.537 479.793,519.537 482,511.5C 484.903,505.593 488.236,499.927 492,494.5C 492.333,502.833 492.667,511.167 493,519.5C 493.725,524.252 494.725,528.919 496,533.5C 499.223,524.65 502.723,515.983 506.5,507.5C 513.504,497.514 521.004,487.847 529,478.5C 546.028,462.126 564.194,447.293 583.5,434C 585.247,433.648 586.914,433.148 588.5,432.5 Z"/>
    </g>
    <g style="" transform="matrix(0.167166, 0, 0, 0.167166, -17.1239, -20.7256)">
      <path style="opacity:1" fill="#ebaf31" d="M 607.5,451.5 C 628.133,451.883 648.133,455.383 667.5,462C 649.28,464.058 631.28,467.558 613.5,472.5C 612.558,472.392 611.725,472.059 611,471.5C 608.861,465 607.695,458.334 607.5,451.5 Z"/>
    </g>
    <g style="" transform="matrix(0.167166, 0, 0, 0.167166, -17.1239, -20.7256)">
      <path style="opacity:1" fill="#5a6927" d="M 409.5,481.5 C 408.833,471.5 408.167,461.5 407.5,451.5C 407.783,450.711 408.283,450.044 409,449.5C 409.5,460.161 409.667,470.828 409.5,481.5 Z"/>
    </g>
    <g style="" transform="matrix(0.167166, 0, 0, 0.167166, -17.1239, -20.7256)">
      <path style="opacity:1" fill="#c3952f" d="M 694.5,460.5 C 696.691,461.291 698.691,461.291 700.5,460.5C 701.782,461.708 701.782,463.042 700.5,464.5C 698.089,463.639 696.089,462.306 694.5,460.5 Z"/>
    </g>
    <g style="" transform="matrix(0.167166, 0, 0, 0.167166, -17.1239, -20.7256)">
      <path style="opacity:1" fill="#218d51" d="M 165.5,598.5 C 164.506,588.681 164.173,578.681 164.5,568.5C 169.08,527.912 184.747,493.412 211.5,465C 205.586,486.739 200.086,508.573 195,530.5C 182.669,552.154 172.836,574.82 165.5,598.5 Z"/>
    </g>
    <g style="" transform="matrix(0.167166, 0, 0, 0.167166, -17.1239, -20.7256)">
      <path style="opacity:1" fill="#218e52" d="M 350.5,631.5 C 349.067,630.167 347.733,628.667 346.5,627C 345.517,626.409 344.85,626.743 344.5,628C 353.577,652.719 366.41,675.219 383,695.5C 435.291,758.077 501.791,796.577 582.5,811C 603.814,813.797 625.148,815.797 646.5,817C 591.083,833.544 536.75,830.544 483.5,808C 424.642,781.979 375.975,743.146 337.5,691.5C 331.638,673.08 325.471,654.746 319,636.5C 310.617,606.829 305.784,576.329 304.5,545C 304.782,520.595 309.282,497.095 318,474.5C 314.084,530.092 324.917,582.426 350.5,631.5 Z"/>
    </g>
    <g style="" transform="matrix(0.167166, 0, 0, 0.167166, -17.1239, -20.7256)">
      <path style="opacity:1" fill="#91e7d3" d="M 744.5,522.5 C 756.545,522.94 761.045,528.94 758,540.5C 754.006,546.054 748.839,547.554 742.5,545C 734.002,536.656 734.669,529.156 744.5,522.5 Z"/>
    </g>
    <g style="" transform="matrix(0.167166, 0, 0, 0.167166, -17.1239, -20.7256)">
      <path style="opacity:1" fill="#fdfefe" d="M 643.5,637.5 C 642.167,637.833 642.167,638.167 643.5,638.5C 655.311,652.384 670.311,657.884 688.5,655C 699.458,649.521 710.125,643.521 720.5,637C 729.641,635.702 737.974,637.702 745.5,643C 749.464,646.903 749.297,650.736 745,654.5C 717.298,675.347 686.132,682.847 651.5,677C 608.496,664.666 587.996,636.166 590,591.5C 598.69,554.305 621.857,532.972 659.5,527.5C 688.962,528.804 708.129,543.47 717,571.5C 720.924,590.648 716.091,607.148 702.5,621C 694.591,627.412 685.591,629.746 675.5,628C 667.166,624.347 662.166,618.014 660.5,609C 660.759,607.739 661.426,606.739 662.5,606C 679.582,606.259 686.416,598.093 683,581.5C 678.936,573.613 672.436,569.613 663.5,569.5C 651.949,570.53 643.449,576.196 638,586.5C 629.431,604.599 631.265,621.599 643.5,637.5 Z"/>
    </g>
    <g style="" transform="matrix(0.167166, 0, 0, 0.167166, -17.1239, -20.7256)">
      <path style="opacity:1" fill="#145631" d="M 164.5,568.5 C 164.173,578.681 164.506,588.681 165.5,598.5C 165.44,599.043 165.107,599.376 164.5,599.5C 163.177,589.007 163.177,578.674 164.5,568.5 Z"/>
    </g>
    <g style="" transform="matrix(0.167166, 0, 0, 0.167166, -17.1239, -20.7256)">
      <path style="opacity:1" fill="#91e6d2" d="M 640.5,707.5 C 594.853,709.659 555.186,695.492 521.5,665C 527.526,666.564 533.526,668.564 539.5,671C 544.559,671.954 549.559,673.12 554.5,674.5C 554.833,674.167 555.167,673.833 555.5,673.5C 547.565,659.028 542.232,643.694 539.5,627.5C 540.742,628.043 542.075,628.377 543.5,628.5C 564.201,624.434 578.701,632.1 587,651.5C 589.906,659.861 591.239,668.527 591,677.5C 591.414,677.957 591.914,678.291 592.5,678.5C 596.679,676.374 601.013,674.708 605.5,673.5C 623.669,678 635.335,689.333 640.5,707.5 Z"/>
    </g>
  </g>
</svg>